#tb 0: 1/25
#media_type 0: video
#codec_id 0: rawvideo
#dimensions 0: 176x288
#sar 0: 0/1
0,          0,          0,        1,   152064, 0x5c9ac29b
0,          1,          1,        1,   152064, 0x80c05734
0,          2,          2,        1,   152064, 0x72bb87a8
0,          3,          3,        1,   152064, 0x06de82c8
0,          4,          4,        1,   152064, 0xbcd8bfca
